<svg xmlns="http://www.w3.org/2000/svg" xmlns:xlink="http://www.w3.org/1999/xlink" width="252" zoomAndPan="magnify" viewBox="0 0 189 81.749997" height="109" preserveAspectRatio="xMidYMid meet" version="1.0"><defs><g/></defs><g fill="#ffffff" fill-opacity="1"><g transform="translate(1.553075, 40.560978)"><g><path d="M 0.394531 0 L 7.851562 0 L 9.914062 -5.308594 L 22.105469 -5.308594 L 24.167969 0 L 31.625 0 L 19.429688 -30.703125 L 12.589844 -30.703125 Z M 11.710938 -10.789062 L 16.007812 -22.019531 L 20.351562 -10.789062 Z M 11.710938 -10.789062 "/></g></g></g><g fill="#ffffff" fill-opacity="1"><g transform="translate(30.235648, 40.560978)"><g><path d="M 3.683594 0 L 10.613281 0 L 10.613281 -18.507812 L 18.070312 -7.589844 L 22.894531 -7.589844 L 30.351562 -18.464844 L 30.351562 0 L 37.28125 0 L 37.28125 -30.703125 L 31.40625 -30.703125 L 20.527344 -14.78125 L 9.605469 -30.703125 L 3.683594 -30.703125 Z M 3.683594 0 "/></g></g></g><g fill="#ffffff" fill-opacity="1"><g transform="translate(67.865269, 40.560978)"><g><path d="M 0.394531 0 L 7.851562 0 L 9.914062 -5.308594 L 22.105469 -5.308594 L 24.167969 0 L 31.625 0 L 19.429688 -30.703125 L 12.589844 -30.703125 Z M 11.710938 -10.789062 L 16.007812 -22.019531 L 20.351562 -10.789062 Z M 11.710938 -10.789062 "/></g></g></g><g fill="#ffffff" fill-opacity="1"><g transform="translate(96.547845, 40.560978)"><g><path d="M 1.84375 0 L 25.265625 0 L 25.265625 -6.316406 L 10.921875 -6.316406 L 24.914062 -25.660156 L 24.914062 -30.703125 L 2.324219 -30.703125 L 2.324219 -24.386719 L 15.878906 -24.386719 L 1.84375 -5.042969 Z M 1.84375 0 "/></g></g></g><g fill="#ffffff" fill-opacity="1"><g transform="translate(120.318321, 40.560978)"><g><path d="M 18.246094 0.613281 C 27.851562 0.613281 34.648438 -5.964844 34.648438 -15.351562 C 34.648438 -24.738281 27.851562 -31.316406 18.246094 -31.316406 C 8.640625 -31.316406 1.886719 -24.738281 1.886719 -15.351562 C 1.886719 -5.964844 8.640625 0.613281 18.246094 0.613281 Z M 8.992188 -15.351562 C 8.992188 -20.878906 12.808594 -24.695312 18.246094 -24.695312 C 23.730469 -24.695312 27.5 -20.878906 27.5 -15.351562 C 27.5 -9.824219 23.730469 -6.007812 18.246094 -6.007812 C 12.808594 -6.007812 8.992188 -9.824219 8.992188 -15.351562 Z M 8.992188 -15.351562 "/></g></g></g><g fill="#ffffff" fill-opacity="1"><g transform="translate(153.518273, 40.560978)"><g><path d="M 3.683594 0 L 10.613281 0 L 10.613281 -18.816406 L 24.167969 0 L 30.089844 0 L 30.089844 -30.703125 L 23.160156 -30.703125 L 23.160156 -12.019531 L 9.605469 -30.703125 L 3.683594 -30.703125 Z M 3.683594 0 "/></g></g></g><g fill="#ffffff" fill-opacity="1"><g transform="translate(17.343964, 74.866037)"><g><path d="M 8.347656 0.324219 C 12.160156 0.324219 14.628906 -1.546875 14.628906 -4.585938 C 14.628906 -7.152344 12.910156 -8.699219 8.449219 -9.792969 C 5.058594 -10.617188 3.9375 -11.511719 3.9375 -12.960938 C 3.9375 -14.628906 5.433594 -15.675781 7.925781 -15.675781 C 10.492188 -15.675781 12.085938 -14.378906 12.136719 -12.285156 L 14.304688 -12.285156 C 14.28125 -15.675781 11.835938 -17.769531 7.925781 -17.769531 C 4.113281 -17.769531 1.695312 -15.898438 1.695312 -12.960938 C 1.695312 -10.265625 3.613281 -8.773438 7.898438 -7.75 C 11.039062 -7.003906 12.359375 -6.128906 12.359375 -4.511719 C 12.359375 -2.792969 10.816406 -1.769531 8.347656 -1.769531 C 5.632812 -1.769531 3.738281 -3.113281 3.6875 -5.359375 L 1.496094 -5.359375 C 1.519531 -1.945312 4.1875 0.324219 8.347656 0.324219 Z M 8.347656 0.324219 "/></g></g></g><g fill="#ffffff" fill-opacity="1"><g transform="translate(31.572887, 74.866037)"><g><path d="M 6.753906 0 L 8.945312 0 L 8.945312 -15.351562 L 14.828125 -15.351562 L 14.828125 -17.445312 L 0.847656 -17.445312 L 0.847656 -15.351562 L 6.753906 -15.351562 Z M 6.753906 0 "/></g></g></g><g fill="#ffffff" fill-opacity="1"><g transform="translate(45.378175, 74.866037)"><g><path d="M 10.46875 0.324219 C 15.773438 0.324219 19.511719 -3.414062 19.511719 -8.722656 C 19.511719 -14.03125 15.773438 -17.769531 10.46875 -17.769531 C 5.160156 -17.769531 1.445312 -14.03125 1.445312 -8.722656 C 1.445312 -3.414062 5.160156 0.324219 10.46875 0.324219 Z M 3.6875 -8.722656 C 3.6875 -12.785156 6.453125 -15.574219 10.46875 -15.574219 C 14.480469 -15.574219 17.246094 -12.785156 17.246094 -8.722656 C 17.246094 -4.660156 14.480469 -1.867188 10.46875 -1.867188 C 6.453125 -1.867188 3.6875 -4.660156 3.6875 -8.722656 Z M 3.6875 -8.722656 "/></g></g></g><g fill="#ffffff" fill-opacity="1"><g transform="translate(64.416636, 74.866037)"><g><path d="M 2.542969 0 L 4.734375 0 L 4.734375 -6.253906 L 8.574219 -6.253906 L 12.835938 0 L 15.476562 0 L 11.089844 -6.480469 C 13.632812 -7.101562 15.203125 -9.023438 15.203125 -11.835938 C 15.203125 -15.300781 12.808594 -17.445312 9.195312 -17.445312 L 2.542969 -17.445312 Z M 4.734375 -8.347656 L 4.734375 -15.351562 L 8.945312 -15.351562 C 11.488281 -15.351562 12.960938 -14.054688 12.960938 -11.835938 C 12.960938 -9.621094 11.488281 -8.347656 8.945312 -8.347656 Z M 4.734375 -8.347656 "/></g></g></g><g fill="#ffffff" fill-opacity="1"><g transform="translate(79.492839, 74.866037)"><g><path d="M 2.542969 0 L 13.40625 0 L 13.40625 -2.042969 L 4.734375 -2.042969 L 4.734375 -7.875 L 12.511719 -7.875 L 12.511719 -9.894531 L 4.734375 -9.894531 L 4.734375 -15.402344 L 13.132812 -15.402344 L 13.132812 -17.445312 L 2.542969 -17.445312 Z M 2.542969 0 "/></g></g></g><g fill="#ffffff" fill-opacity="1"><g transform="translate(92.625291, 74.866037)"><g><path d="M 2.542969 0 L 4.734375 0 L 4.734375 -7.351562 L 11.886719 -7.351562 L 11.886719 -9.371094 L 4.734375 -9.371094 L 4.734375 -15.402344 L 12.535156 -15.402344 L 12.535156 -17.445312 L 2.542969 -17.445312 Z M 2.542969 0 "/></g></g></g><g fill="#ffffff" fill-opacity="1"><g transform="translate(104.636355, 74.866037)"><g><path d="M 2.542969 0 L 4.734375 0 L 4.734375 -6.253906 L 8.574219 -6.253906 L 12.835938 0 L 15.476562 0 L 11.089844 -6.480469 C 13.632812 -7.101562 15.203125 -9.023438 15.203125 -11.835938 C 15.203125 -15.300781 12.808594 -17.445312 9.195312 -17.445312 L 2.542969 -17.445312 Z M 4.734375 -8.347656 L 4.734375 -15.351562 L 8.945312 -15.351562 C 11.488281 -15.351562 12.960938 -14.054688 12.960938 -11.835938 C 12.960938 -9.621094 11.488281 -8.347656 8.945312 -8.347656 Z M 4.734375 -8.347656 "/></g></g></g><g fill="#ffffff" fill-opacity="1"><g transform="translate(119.712557, 74.866037)"><g><path d="M 10.46875 0.324219 C 15.773438 0.324219 19.511719 -3.414062 19.511719 -8.722656 C 19.511719 -14.03125 15.773438 -17.769531 10.46875 -17.769531 C 5.160156 -17.769531 1.445312 -14.03125 1.445312 -8.722656 C 1.445312 -3.414062 5.160156 0.324219 10.46875 0.324219 Z M 3.6875 -8.722656 C 3.6875 -12.785156 6.453125 -15.574219 10.46875 -15.574219 C 14.480469 -15.574219 17.246094 -12.785156 17.246094 -8.722656 C 17.246094 -4.660156 14.480469 -1.867188 10.46875 -1.867188 C 6.453125 -1.867188 3.6875 -4.660156 3.6875 -8.722656 Z M 3.6875 -8.722656 "/></g></g></g><g fill="#ffffff" fill-opacity="1"><g transform="translate(138.751022, 74.866037)"><g><path d="M 2.542969 0 L 4.710938 0 L 4.710938 -13.65625 L 14.355469 0 L 16.398438 0 L 16.398438 -17.445312 L 14.253906 -17.445312 L 14.253906 -3.789062 L 4.609375 -17.445312 L 2.542969 -17.445312 Z M 2.542969 0 "/></g></g></g><g fill="#ffffff" fill-opacity="1"><g transform="translate(155.795899, 74.866037)"><g><path d="M 6.753906 0 L 8.945312 0 L 8.945312 -15.351562 L 14.828125 -15.351562 L 14.828125 -17.445312 L 0.847656 -17.445312 L 0.847656 -15.351562 L 6.753906 -15.351562 Z M 6.753906 0 "/></g></g></g></svg>