<svg width="289" height="93" viewBox="0 0 289 93" fill="none" xmlns="http://www.w3.org/2000/svg">
<g filter="url(#filter0_d_161_7)">
<path d="M29.0781 30.6062C29.0781 36.1016 24.6966 39.7033 17.753 39.7033C10.8095 39.7033 6.35375 36.0274 5.87104 30.1235H12.9631C13.0374 32.6484 14.7083 34.2451 17.6045 34.2451C20.018 34.2451 21.6147 33.3168 21.6147 31.6459C21.6147 30.4948 20.4636 29.6408 18.9041 29.3437L14.0399 28.4154C9.76982 27.5986 6.94785 25.1108 6.94785 20.8035C6.94785 15.828 11.3293 12.3376 17.3075 12.3376C23.6569 12.3376 28.224 15.9765 28.6325 21.7318H21.5404C21.3548 19.3183 19.721 17.7588 17.3817 17.7588C15.3024 17.7588 14.0399 18.8727 14.0399 20.3208C14.0399 21.509 15.2281 22.2145 16.6391 22.4745L21.8003 23.477C26.5531 24.4053 29.0781 26.7445 29.0781 30.6062ZM44.129 39.889C36.4428 39.889 30.3904 34.0594 30.3904 25.9648C30.3904 17.8702 36.4428 12.1148 44.129 12.1148C51.8523 12.1148 57.9047 17.8702 57.9047 25.9648C57.9047 34.0594 51.8523 39.889 44.129 39.889ZM44.129 33.6138C48.3248 33.6138 50.6641 30.1606 50.6641 25.9648C50.6641 21.769 48.3248 18.39 44.129 18.39C39.9331 18.39 37.5939 21.769 37.5939 25.9648C37.5939 30.1606 39.9331 33.6138 44.129 33.6138ZM73.5323 39.889C65.9575 39.889 59.9794 33.7995 59.9794 25.9648C59.9794 18.1672 65.9575 12.1148 73.5323 12.1148C80.8471 12.1148 86.4911 16.979 87.3451 24.034H79.9188C79.3619 20.6922 76.8741 18.39 73.6065 18.39C69.6706 18.39 67.1828 21.4348 67.1828 25.9648C67.1828 30.5319 69.6706 33.6138 73.6065 33.6138C76.837 33.6138 79.3247 31.3117 79.9188 27.9327H87.3451C86.4539 35.0619 80.8471 39.889 73.5323 39.889ZM98.0006 39.332H90.9828V12.6718H98.0006V39.332ZM120.58 39.332L118.946 34.3936H109.589L107.918 39.332H100.826L110.703 12.6718H118.389L128.155 39.332H120.58ZM114.342 20.3951L111.483 28.861H117.127L114.342 20.3951ZM149.21 39.332H130.979V12.6718H137.996V32.9826H149.21V39.332ZM172.744 39.332L167.026 23.9597V39.332H160.676V12.6718H168.957L175.677 30.7547L182.361 12.6718H190.641V39.332H184.292V23.774L178.537 39.332H172.744ZM214.712 33.2425V39.332H195.85V12.6718H214.452V18.7613H202.867V22.5858H213.375V28.6754H202.867V33.2425H214.712ZM229.127 39.332H218.73V12.6718H229.127C237.556 12.6718 242.865 18.093 242.865 25.8534C242.865 33.6138 237.37 39.332 229.127 39.332ZM225.748 18.7242V33.2796H228.718C233.36 33.2796 235.662 30.8661 235.662 25.8534C235.662 21.1377 233.286 18.7242 228.718 18.7242H225.748ZM253.524 39.332H246.506V12.6718H253.524V39.332ZM276.103 39.332L274.47 34.3936H265.113L263.442 39.332H256.35L266.227 12.6718H273.913L283.678 39.332H276.103ZM269.865 20.3951L267.006 28.861H272.65L269.865 20.3951Z" fill="white"/>
</g>
<g filter="url(#filter1_d_161_7)">
<path d="M54.3346 84.4732C48.0253 84.4732 43.2619 79.3312 43.2619 72.6434C43.2619 65.9871 48.0253 60.8766 54.3346 60.8766C59.729 60.8766 64.177 64.5044 65.0603 69.8988H62.5682C61.8426 65.8609 58.4987 62.9902 54.3346 62.9902C49.3187 62.9902 45.6909 67.0912 45.6909 72.6434C45.6909 78.2586 49.3187 82.3596 54.3346 82.3596C58.5302 82.3596 61.8741 79.4573 62.5682 75.4194H65.0603C64.177 80.8138 59.729 84.4732 54.3346 84.4732ZM79.019 84.4732C72.4574 84.4732 67.5993 79.2365 67.5993 72.6434C67.5993 66.0502 72.4574 60.8766 79.019 60.8766C85.5807 60.8766 90.4703 66.0502 90.4703 72.6434C90.4703 79.2365 85.5807 84.4732 79.019 84.4732ZM79.019 82.3596C84.3819 82.3596 88.0097 78.0693 88.0097 72.6434C88.0097 67.2174 84.3819 62.9902 79.019 62.9902C73.6877 62.9902 70.0284 67.2174 70.0284 72.6434C70.0284 78.0693 73.6877 82.3596 79.019 82.3596ZM109.673 84L96.455 64.6937V84H94.2468V61.3498H96.8651L109.957 80.4037V61.3498H112.197V84H109.673ZM133.189 77.7223C133.189 81.3186 130.255 84.3155 124.987 84.3155C119.719 84.3155 116.627 81.3817 116.406 77.0914H118.804C119.025 80.3091 121.044 82.3911 124.955 82.3911C128.173 82.3911 130.697 80.7507 130.697 78.0378C130.697 75.7033 129.372 74.6308 126.154 73.9683L123.283 73.4005C120.286 72.8011 117.132 71.413 117.132 67.4698C117.132 63.8419 120.318 61.0343 124.829 61.0343C129.246 61.0343 132.653 63.8104 132.905 68.1322H130.476C130.318 65.1353 128.11 62.9587 124.861 62.9587C121.391 62.9587 119.529 65.0723 119.529 67.3436C119.529 70.025 121.801 70.8452 124.324 71.35L127.195 71.9493C131.012 72.738 133.189 74.3153 133.189 77.7223ZM154.091 61.3498V76.2396C154.091 81.3186 150.81 84.4732 145.826 84.4732C140.81 84.4732 137.529 81.3186 137.529 76.2396V61.3498H139.895V76.3658C139.895 80.0567 142.324 82.3596 145.826 82.3596C149.327 82.3596 151.725 80.0567 151.725 76.3658V61.3498H154.091ZM172.06 84H159.126V61.3498H161.492V81.8864H172.06V84ZM181.218 84H178.883V63.4634H171.281V61.3498H188.82V63.4634H181.218V84ZM194.363 84H191.997V61.3498H194.363V84ZM214.909 84L201.691 64.6937V84H199.483V61.3498H202.101L215.193 80.4037V61.3498H217.433V84H214.909ZM232.715 84.4732C226.217 84.4732 221.264 79.4889 221.264 72.6749C221.264 65.9871 225.996 60.8766 232.558 60.8766C238.457 60.8766 242.305 64.5675 243.599 69.1102H240.917C239.939 65.6716 237.069 62.9902 232.495 62.9902C227.289 62.9902 223.693 66.9966 223.693 72.7064C223.693 78.2901 227.321 82.4227 232.778 82.4227C237.7 82.4227 240.823 79.3627 241.422 74.5992H232.526V72.6749H243.883C243.82 79.8359 239.403 84.4732 232.715 84.4732Z" fill="white"/>
</g>
<defs>
<filter id="filter0_d_161_7" x="0.571094" y="10.8148" width="288.407" height="38.3742" filterUnits="userSpaceOnUse" color-interpolation-filters="sRGB">
<feFlood flood-opacity="0" result="BackgroundImageFix"/>
<feColorMatrix in="SourceAlpha" type="matrix" values="0 0 0 0 0 0 0 0 0 0 0 0 0 0 0 0 0 0 127 0" result="hardAlpha"/>
<feOffset dy="4"/>
<feGaussianBlur stdDeviation="2.65"/>
<feComposite in2="hardAlpha" operator="out"/>
<feColorMatrix type="matrix" values="0 0 0 0 0 0 0 0 0 0 0 0 0 0 0 0 0 0 0.25 0"/>
<feBlend mode="normal" in2="BackgroundImageFix" result="effect1_dropShadow_161_7"/>
<feBlend mode="normal" in="SourceGraphic" in2="effect1_dropShadow_161_7" result="shape"/>
</filter>
<filter id="filter1_d_161_7" x="39.8635" y="60.8766" width="207.418" height="30.3933" filterUnits="userSpaceOnUse" color-interpolation-filters="sRGB">
<feFlood flood-opacity="0" result="BackgroundImageFix"/>
<feColorMatrix in="SourceAlpha" type="matrix" values="0 0 0 0 0 0 0 0 0 0 0 0 0 0 0 0 0 0 127 0" result="hardAlpha"/>
<feOffset dy="3.39835"/>
<feGaussianBlur stdDeviation="1.69918"/>
<feComposite in2="hardAlpha" operator="out"/>
<feColorMatrix type="matrix" values="0 0 0 0 0 0 0 0 0 0 0 0 0 0 0 0 0 0 0.25 0"/>
<feBlend mode="normal" in2="BackgroundImageFix" result="effect1_dropShadow_161_7"/>
<feBlend mode="normal" in="SourceGraphic" in2="effect1_dropShadow_161_7" result="shape"/>
</filter>
</defs>
</svg>
