<svg xmlns="http://www.w3.org/2000/svg" xmlns:xlink="http://www.w3.org/1999/xlink" width="316" zoomAndPan="magnify" viewBox="0 0 236.87999 81.749997" height="109" preserveAspectRatio="xMidYMid meet" version="1.0"><defs><g/></defs><g fill="#ffffff" fill-opacity="1"><g transform="translate(12.73092, 40.560978)"><g><path d="M 17.761719 0.613281 C 25.835938 0.613281 32.105469 -4.296875 33.640625 -11.753906 L 26.449219 -11.753906 C 25.175781 -8.246094 21.929688 -6.007812 17.894531 -6.007812 C 12.675781 -6.007812 8.992188 -9.824219 8.992188 -15.351562 C 8.992188 -20.878906 12.71875 -24.695312 17.9375 -24.695312 C 21.84375 -24.695312 25.042969 -22.589844 26.230469 -19.210938 L 33.421875 -19.210938 C 31.667969 -26.578125 25.527344 -31.316406 17.71875 -31.316406 C 8.421875 -31.316406 1.886719 -24.738281 1.886719 -15.351562 C 1.886719 -5.964844 8.421875 0.613281 17.761719 0.613281 Z M 17.761719 0.613281 "/></g></g></g><g fill="#ffffff" fill-opacity="1"><g transform="translate(44.79057, 40.560978)"><g><path d="M 18.246094 0.613281 C 27.851562 0.613281 34.648438 -5.964844 34.648438 -15.351562 C 34.648438 -24.738281 27.851562 -31.316406 18.246094 -31.316406 C 8.640625 -31.316406 1.886719 -24.738281 1.886719 -15.351562 C 1.886719 -5.964844 8.640625 0.613281 18.246094 0.613281 Z M 8.992188 -15.351562 C 8.992188 -20.878906 12.808594 -24.695312 18.246094 -24.695312 C 23.730469 -24.695312 27.5 -20.878906 27.5 -15.351562 C 27.5 -9.824219 23.730469 -6.007812 18.246094 -6.007812 C 12.808594 -6.007812 8.992188 -9.824219 8.992188 -15.351562 Z M 8.992188 -15.351562 "/></g></g></g><g fill="#ffffff" fill-opacity="1"><g transform="translate(77.990524, 40.560978)"><g><path d="M 3.683594 0 L 10.613281 0 L 10.613281 -18.816406 L 24.167969 0 L 30.089844 0 L 30.089844 -30.703125 L 23.160156 -30.703125 L 23.160156 -12.019531 L 9.605469 -30.703125 L 3.683594 -30.703125 Z M 3.683594 0 "/></g></g></g><g fill="#ffffff" fill-opacity="1"><g transform="translate(108.427424, 40.560978)"><g><path d="M 11.054688 0 L 18.027344 0 L 18.027344 -24.167969 L 27.765625 -24.167969 L 27.765625 -30.703125 L 1.316406 -30.703125 L 1.316406 -24.167969 L 11.054688 -24.167969 Z M 11.054688 0 "/></g></g></g><g fill="#ffffff" fill-opacity="1"><g transform="translate(134.171509, 40.560978)"><g><path d="M 0.394531 0 L 7.851562 0 L 9.914062 -5.308594 L 22.105469 -5.308594 L 24.167969 0 L 31.625 0 L 19.429688 -30.703125 L 12.589844 -30.703125 Z M 11.710938 -10.789062 L 16.007812 -22.019531 L 20.351562 -10.789062 Z M 11.710938 -10.789062 "/></g></g></g><g fill="#ffffff" fill-opacity="1"><g transform="translate(162.854078, 40.560978)"><g><path d="M 17.761719 0.613281 C 25.835938 0.613281 32.105469 -4.296875 33.640625 -11.753906 L 26.449219 -11.753906 C 25.175781 -8.246094 21.929688 -6.007812 17.894531 -6.007812 C 12.675781 -6.007812 8.992188 -9.824219 8.992188 -15.351562 C 8.992188 -20.878906 12.71875 -24.695312 17.9375 -24.695312 C 21.84375 -24.695312 25.042969 -22.589844 26.230469 -19.210938 L 33.421875 -19.210938 C 31.667969 -26.578125 25.527344 -31.316406 17.71875 -31.316406 C 8.421875 -31.316406 1.886719 -24.738281 1.886719 -15.351562 C 1.886719 -5.964844 8.421875 0.613281 17.761719 0.613281 Z M 17.761719 0.613281 "/></g></g></g><g fill="#ffffff" fill-opacity="1"><g transform="translate(194.913726, 40.560978)"><g><path d="M 11.054688 0 L 18.027344 0 L 18.027344 -24.167969 L 27.765625 -24.167969 L 27.765625 -30.703125 L 1.316406 -30.703125 L 1.316406 -24.167969 L 11.054688 -24.167969 Z M 11.054688 0 "/></g></g></g><g fill="#ffffff" fill-opacity="1"><g transform="translate(100.388362, 74.866037)"><g><path d="M 2.542969 0 L 4.734375 0 L 4.734375 -13.359375 L 10.515625 -4.636719 L 12.3125 -4.636719 L 18.09375 -13.332031 L 18.09375 0 L 20.285156 0 L 20.285156 -17.445312 L 18.242188 -17.445312 L 11.4375 -7.101562 L 4.585938 -17.445312 L 2.542969 -17.445312 Z M 2.542969 0 "/></g></g></g><g fill="#ffffff" fill-opacity="1"><g transform="translate(121.320727, 74.866037)"><g><path d="M 2.542969 0 L 13.40625 0 L 13.40625 -2.042969 L 4.734375 -2.042969 L 4.734375 -7.875 L 12.511719 -7.875 L 12.511719 -9.894531 L 4.734375 -9.894531 L 4.734375 -15.402344 L 13.132812 -15.402344 L 13.132812 -17.445312 L 2.542969 -17.445312 Z M 2.542969 0 "/></g></g></g></svg>