<svg xmlns="http://www.w3.org/2000/svg" xmlns:xlink="http://www.w3.org/1999/xlink" width="267" zoomAndPan="magnify" viewBox="0 0 200.25 81.749997" height="109" preserveAspectRatio="xMidYMid meet" version="1.0"><defs><g/></defs><g fill="#ffffff" fill-opacity="1"><g transform="translate(60.29204, 40.561194)"><g><path d="M 3.683594 0 L 24.0625 0 L 24.0625 -6.53125 L 10.652344 -6.53125 L 10.652344 -30.679688 L 3.683594 -30.679688 Z M 3.683594 0 "/></g></g></g><g fill="#ffffff" fill-opacity="1"><g transform="translate(82.205466, 40.561194)"><g><path d="M 11.046875 0 L 18.015625 0 L 18.015625 -24.152344 L 27.746094 -24.152344 L 27.746094 -30.679688 L 1.316406 -30.679688 L 1.316406 -24.152344 L 11.046875 -24.152344 Z M 11.046875 0 "/></g></g></g><g fill="#ffffff" fill-opacity="1"><g transform="translate(107.931932, 40.561194)"><g><path d="M 3.683594 0 L 10.652344 0 L 10.652344 -12.402344 L 14.332031 -12.402344 C 14.902344 -12.402344 15.382812 -12.402344 15.910156 -12.449219 L 22.484375 0 L 30.59375 0 L 22.308594 -15.035156 C 23.539062 -16.21875 24.457031 -17.75 25.246094 -19.769531 L 29.5 -30.679688 L 21.960938 -30.679688 L 19.066406 -22.703125 C 18.015625 -19.8125 16.742188 -18.890625 13.28125 -18.890625 L 10.652344 -18.890625 L 10.652344 -30.679688 L 3.683594 -30.679688 Z M 3.683594 0 "/></g></g></g><g fill="#ffffff" fill-opacity="1"><g transform="translate(22.531434, 74.842767)"><g><path d="M 8.34375 0.324219 C 12.152344 0.324219 14.617188 -1.542969 14.617188 -4.582031 C 14.617188 -7.148438 12.898438 -8.691406 8.441406 -9.789062 C 5.054688 -10.609375 3.933594 -11.503906 3.933594 -12.949219 C 3.933594 -14.617188 5.429688 -15.664062 7.917969 -15.664062 C 10.484375 -15.664062 12.078125 -14.371094 12.128906 -12.277344 L 14.296875 -12.277344 C 14.269531 -15.664062 11.828125 -17.757812 7.917969 -17.757812 C 4.109375 -17.757812 1.695312 -15.890625 1.695312 -12.949219 C 1.695312 -10.261719 3.609375 -8.765625 7.894531 -7.746094 C 11.03125 -7 12.351562 -6.125 12.351562 -4.507812 C 12.351562 -2.789062 10.808594 -1.769531 8.34375 -1.769531 C 5.628906 -1.769531 3.734375 -3.113281 3.6875 -5.355469 L 1.496094 -5.355469 C 1.519531 -1.941406 4.183594 0.324219 8.34375 0.324219 Z M 8.34375 0.324219 "/></g></g></g><g fill="#ffffff" fill-opacity="1"><g transform="translate(36.750616, 74.842767)"><g><path d="M 13.972656 0 L 16.164062 0 L 16.164062 -17.433594 L 13.972656 -17.433594 L 13.972656 -9.9375 L 4.730469 -9.9375 L 4.730469 -17.433594 L 2.539062 -17.433594 L 2.539062 0 L 4.730469 0 L 4.730469 -7.84375 L 13.972656 -7.84375 Z M 13.972656 0 "/></g></g></g><g fill="#ffffff" fill-opacity="1"><g transform="translate(53.559692, 74.842767)"><g><path d="M 10.460938 0.324219 C 15.765625 0.324219 19.5 -3.410156 19.5 -8.714844 C 19.5 -14.019531 15.765625 -17.757812 10.460938 -17.757812 C 5.15625 -17.757812 1.445312 -14.019531 1.445312 -8.714844 C 1.445312 -3.410156 5.15625 0.324219 10.460938 0.324219 Z M 3.6875 -8.714844 C 3.6875 -12.777344 6.449219 -15.566406 10.460938 -15.566406 C 14.46875 -15.566406 17.234375 -12.777344 17.234375 -8.714844 C 17.234375 -4.65625 14.46875 -1.867188 10.460938 -1.867188 C 6.449219 -1.867188 3.6875 -4.65625 3.6875 -8.714844 Z M 3.6875 -8.714844 "/></g></g></g><g fill="#ffffff" fill-opacity="1"><g transform="translate(72.585119, 74.842767)"><g><path d="M 2.539062 0 L 4.730469 0 L 4.730469 -5.726562 L 8.441406 -5.726562 C 12.378906 -5.726562 14.917969 -7.996094 14.917969 -11.582031 C 14.917969 -15.140625 12.378906 -17.433594 8.441406 -17.433594 L 2.539062 -17.433594 Z M 4.730469 -7.769531 L 4.730469 -15.339844 L 8.394531 -15.339844 C 11.207031 -15.339844 12.675781 -14.046875 12.675781 -11.554688 C 12.675781 -9.066406 11.207031 -7.769531 8.394531 -7.769531 Z M 4.730469 -7.769531 "/></g></g></g><g fill="#ffffff" fill-opacity="1"><g transform="translate(86.605083, 74.842767)"><g/></g></g><g fill="#ffffff" fill-opacity="1"><g transform="translate(90.888066, 74.842767)"><g><path d="M 2.539062 0 L 4.730469 0 L 4.730469 -13.347656 L 10.507812 -4.632812 L 12.300781 -4.632812 L 18.082031 -13.324219 L 18.082031 0 L 20.273438 0 L 20.273438 -17.433594 L 18.230469 -17.433594 L 11.429688 -7.097656 L 4.582031 -17.433594 L 2.539062 -17.433594 Z M 2.539062 0 "/></g></g></g><g fill="#ffffff" fill-opacity="1"><g transform="translate(111.806099, 74.842767)"><g><path d="M 6.972656 0 L 9.113281 0 L 9.113281 -6.277344 L 15.664062 -17.433594 L 13.199219 -17.433594 L 8.070312 -8.617188 L 5.800781 -12.550781 L 2.964844 -17.433594 L 0.421875 -17.433594 L 6.972656 -6.277344 Z M 6.972656 0 "/></g></g></g><g fill="#ffffff" fill-opacity="1"><g transform="translate(130.283368, 74.842767)"><g><path d="M 2.539062 0 L 4.730469 0 L 4.730469 -7.347656 L 11.878906 -7.347656 L 11.878906 -9.363281 L 4.730469 -9.363281 L 4.730469 -15.390625 L 12.527344 -15.390625 L 12.527344 -17.433594 L 2.539062 -17.433594 Z M 2.539062 0 "/></g></g></g><g fill="#ffffff" fill-opacity="1"><g transform="translate(142.286215, 74.842767)"><g><path d="M 2.539062 0 L 4.730469 0 L 4.730469 -17.433594 L 2.539062 -17.433594 Z M 2.539062 0 "/></g></g></g><g fill="#ffffff" fill-opacity="1"><g transform="translate(147.664923, 74.842767)"><g><path d="M 6.75 0 L 8.941406 0 L 8.941406 -15.339844 L 14.816406 -15.339844 L 14.816406 -17.433594 L 0.847656 -17.433594 L 0.847656 -15.339844 L 6.75 -15.339844 Z M 6.75 0 "/></g></g></g><g fill="#ffffff" fill-opacity="1"><g transform="translate(161.460763, 74.842767)"><g><path d="M 8.34375 0.324219 C 12.152344 0.324219 14.617188 -1.542969 14.617188 -4.582031 C 14.617188 -7.148438 12.898438 -8.691406 8.441406 -9.789062 C 5.054688 -10.609375 3.933594 -11.503906 3.933594 -12.949219 C 3.933594 -14.617188 5.429688 -15.664062 7.917969 -15.664062 C 10.484375 -15.664062 12.078125 -14.371094 12.128906 -12.277344 L 14.296875 -12.277344 C 14.269531 -15.664062 11.828125 -17.757812 7.917969 -17.757812 C 4.109375 -17.757812 1.695312 -15.890625 1.695312 -12.949219 C 1.695312 -10.261719 3.609375 -8.765625 7.894531 -7.746094 C 11.03125 -7 12.351562 -6.125 12.351562 -4.507812 C 12.351562 -2.789062 10.808594 -1.769531 8.34375 -1.769531 C 5.628906 -1.769531 3.734375 -3.113281 3.6875 -5.355469 L 1.496094 -5.355469 C 1.519531 -1.941406 4.183594 0.324219 8.34375 0.324219 Z M 8.34375 0.324219 "/></g></g></g></svg>