<svg xmlns="http://www.w3.org/2000/svg" xmlns:xlink="http://www.w3.org/1999/xlink" width="267" zoomAndPan="magnify" viewBox="0 0 200.25 81.749997" height="109" preserveAspectRatio="xMidYMid meet" version="1.0"><defs><g/></defs><g fill="#ffffff" fill-opacity="1"><g transform="translate(1.286474, 40.561194)"><g><path d="M 11.703125 0 L 18.671875 0 L 18.671875 -10.828125 L 29.9375 -30.679688 L 22.003906 -30.679688 L 18.234375 -23.582031 L 15.210938 -18.015625 L 12.140625 -23.582031 L 8.328125 -30.679688 L 0.394531 -30.679688 L 11.703125 -10.738281 Z M 11.703125 0 "/></g></g></g><g fill="#ffffff" fill-opacity="1"><g transform="translate(28.283952, 40.561194)"><g><path d="M 18.234375 0.613281 C 27.832031 0.613281 34.625 -5.960938 34.625 -15.339844 C 34.625 -24.71875 27.832031 -31.296875 18.234375 -31.296875 C 8.632812 -31.296875 1.882812 -24.71875 1.882812 -15.339844 C 1.882812 -5.960938 8.632812 0.613281 18.234375 0.613281 Z M 8.984375 -15.339844 C 8.984375 -20.863281 12.796875 -24.675781 18.234375 -24.675781 C 23.710938 -24.675781 27.480469 -20.863281 27.480469 -15.339844 C 27.480469 -9.816406 23.710938 -6.003906 18.234375 -6.003906 C 12.796875 -6.003906 8.984375 -9.816406 8.984375 -15.339844 Z M 8.984375 -15.339844 "/></g></g></g><g fill="#ffffff" fill-opacity="1"><g transform="translate(61.461178, 40.561194)"><g><path d="M 16.21875 0.613281 C 24.195312 0.613281 29.058594 -4.382812 29.058594 -12.625 L 29.058594 -30.679688 L 22.089844 -30.679688 L 22.089844 -13.105469 C 22.089844 -8.414062 20.117188 -6.003906 16.21875 -6.003906 C 12.316406 -6.003906 10.34375 -8.414062 10.34375 -13.105469 L 10.34375 -30.679688 L 3.375 -30.679688 L 3.375 -12.625 C 3.375 -4.382812 8.238281 0.613281 16.21875 0.613281 Z M 16.21875 0.613281 "/></g></g></g><g fill="#ffffff" fill-opacity="1"><g transform="translate(90.562398, 40.561194)"><g><path d="M 11.046875 0 L 18.015625 0 L 18.015625 -24.152344 L 27.746094 -24.152344 L 27.746094 -30.679688 L 1.316406 -30.679688 L 1.316406 -24.152344 L 11.046875 -24.152344 Z M 11.046875 0 "/></g></g></g><g fill="#ffffff" fill-opacity="1"><g transform="translate(116.288858, 40.561194)"><g><path d="M 16.21875 0.613281 C 24.195312 0.613281 29.058594 -4.382812 29.058594 -12.625 L 29.058594 -30.679688 L 22.089844 -30.679688 L 22.089844 -13.105469 C 22.089844 -8.414062 20.117188 -6.003906 16.21875 -6.003906 C 12.316406 -6.003906 10.34375 -8.414062 10.34375 -13.105469 L 10.34375 -30.679688 L 3.375 -30.679688 L 3.375 -12.625 C 3.375 -4.382812 8.238281 0.613281 16.21875 0.613281 Z M 16.21875 0.613281 "/></g></g></g><g fill="#ffffff" fill-opacity="1"><g transform="translate(145.390072, 40.561194)"><g><path d="M 3.683594 0 L 18.101562 0 C 24.324219 0 28.535156 -3.417969 28.535156 -8.589844 C 28.535156 -11.878906 26.824219 -14.507812 23.929688 -15.777344 C 26.253906 -17.136719 27.613281 -19.546875 27.613281 -22.441406 C 27.613281 -27.480469 23.625 -30.679688 17.402344 -30.679688 L 3.683594 -30.679688 Z M 10.5625 -5.523438 L 10.5625 -12.886719 L 17.050781 -12.886719 C 19.8125 -12.886719 21.390625 -11.527344 21.390625 -9.203125 C 21.390625 -6.882812 19.8125 -5.523438 17.050781 -5.523438 Z M 10.5625 -18.191406 L 10.5625 -25.160156 L 16.347656 -25.160156 C 19.023438 -25.160156 20.511719 -23.929688 20.511719 -21.695312 C 20.511719 -19.460938 19.023438 -18.191406 16.347656 -18.191406 Z M 10.5625 -18.191406 "/></g></g></g><g fill="#ffffff" fill-opacity="1"><g transform="translate(172.256067, 40.561194)"><g><path d="M 3.683594 0 L 24.324219 0 L 24.324219 -5.917969 L 10.605469 -5.917969 L 10.605469 -12.625 L 22.660156 -12.625 L 22.660156 -18.453125 L 10.605469 -18.453125 L 10.605469 -24.808594 L 23.84375 -24.808594 L 23.84375 -30.679688 L 3.683594 -30.679688 Z M 3.683594 0 "/></g></g></g><g fill="#ffffff" fill-opacity="1"><g transform="translate(44.176927, 74.842767)"><g><path d="M 10.261719 0.324219 C 14.496094 0.324219 17.929688 -2.242188 18.976562 -6.125 L 16.660156 -6.125 C 15.765625 -3.511719 13.300781 -1.867188 10.335938 -1.867188 C 6.449219 -1.867188 3.6875 -4.683594 3.6875 -8.714844 C 3.6875 -12.75 6.449219 -15.566406 10.335938 -15.566406 C 13.222656 -15.566406 15.589844 -14.019531 16.488281 -11.503906 L 18.828125 -11.503906 C 17.683594 -15.339844 14.371094 -17.757812 10.261719 -17.757812 C 5.128906 -17.757812 1.445312 -13.972656 1.445312 -8.714844 C 1.445312 -3.460938 5.128906 0.324219 10.261719 0.324219 Z M 10.261719 0.324219 "/></g></g></g><g fill="#ffffff" fill-opacity="1"><g transform="translate(62.604681, 74.842767)"><g><path d="M 13.972656 0 L 16.164062 0 L 16.164062 -17.433594 L 13.972656 -17.433594 L 13.972656 -9.9375 L 4.730469 -9.9375 L 4.730469 -17.433594 L 2.539062 -17.433594 L 2.539062 0 L 4.730469 0 L 4.730469 -7.84375 L 13.972656 -7.84375 Z M 13.972656 0 "/></g></g></g><g fill="#ffffff" fill-opacity="1"><g transform="translate(79.413756, 74.842767)"><g><path d="M 0.421875 0 L 2.765625 0 L 4.359375 -3.960938 L 12.851562 -3.960938 L 14.496094 0 L 16.808594 0 L 9.636719 -17.433594 L 7.597656 -17.433594 Z M 5.203125 -6 L 8.617188 -14.371094 L 12.027344 -6 Z M 5.203125 -6 "/></g></g></g><g fill="#ffffff" fill-opacity="1"><g transform="translate(94.75357, 74.842767)"><g><path d="M 2.539062 0 L 4.707031 0 L 4.707031 -13.648438 L 14.34375 0 L 16.386719 0 L 16.386719 -17.433594 L 14.246094 -17.433594 L 14.246094 -3.785156 L 4.605469 -17.433594 L 2.539062 -17.433594 Z M 2.539062 0 "/></g></g></g><g fill="#ffffff" fill-opacity="1"><g transform="translate(111.786773, 74.842767)"><g><path d="M 2.539062 0 L 4.707031 0 L 4.707031 -13.648438 L 14.34375 0 L 16.386719 0 L 16.386719 -17.433594 L 14.246094 -17.433594 L 14.246094 -3.785156 L 4.605469 -17.433594 L 2.539062 -17.433594 Z M 2.539062 0 "/></g></g></g><g fill="#ffffff" fill-opacity="1"><g transform="translate(128.819976, 74.842767)"><g><path d="M 2.539062 0 L 13.398438 0 L 13.398438 -2.042969 L 4.730469 -2.042969 L 4.730469 -7.871094 L 12.5 -7.871094 L 12.5 -9.886719 L 4.730469 -9.886719 L 4.730469 -15.390625 L 13.125 -15.390625 L 13.125 -17.433594 L 2.539062 -17.433594 Z M 2.539062 0 "/></g></g></g><g fill="#ffffff" fill-opacity="1"><g transform="translate(141.943443, 74.842767)"><g><path d="M 2.539062 0 L 13.199219 0 L 13.199219 -2.09375 L 4.730469 -2.09375 L 4.730469 -17.433594 L 2.539062 -17.433594 Z M 2.539062 0 "/></g></g></g></svg>