<svg width="192" height="192" viewBox="0 0 192 192" fill="none" xmlns="http://www.w3.org/2000/svg">
<circle cx="96" cy="96" r="96" fill="black"/>
<path d="M148.317 129.227C148.317 133.104 146.157 140.571 141.304 144.672C140.333 145.419 139.362 144.997 139.789 143.909C141.202 140.453 144.434 132.459 142.92 130.619C141.848 129.221 137.421 129.328 133.645 129.648C131.922 129.867 130.408 129.968 129.234 130.208C128.146 130.293 127.928 129.339 129.016 128.592C130.433 127.592 131.999 126.822 133.656 126.309C139.789 124.475 146.877 125.579 147.896 126.752C148.088 126.976 148.317 127.611 148.317 129.227ZM138.066 136.123C136.664 137.204 135.187 138.184 133.645 139.056C122.328 145.856 107.666 149.419 94.9357 149.419C74.4397 149.419 56.1091 141.861 42.1997 129.216C41.005 128.245 41.9917 126.837 43.389 127.6C58.3757 136.347 76.9251 141.637 96.1251 141.637C108.21 141.637 121.234 139.376 133.645 134.512C134.514 134.187 135.485 133.744 136.333 133.435C138.29 132.555 140.013 134.725 138.066 136.123ZM105.16 77.296C105.16 71.744 105.384 68.4747 103.544 65.6693C101.912 63.36 99.1011 61.9733 95.1757 62.192C90.9197 62.4267 86.349 65.216 85.1864 70.3307C84.957 71.504 84.2744 72.656 82.8557 72.9067L69.8691 71.2533C68.9411 71.04 67.5277 70.3307 67.9917 68.4747C70.7811 53.8027 83.3197 48.688 95.1811 48H97.965C104.472 48 112.834 49.8613 118.184 54.7413C124.674 60.8 123.981 68.9387 123.981 77.7813V98.7253C123.981 105.008 126.53 107.792 129.09 111.067C129.784 112.235 130.024 113.611 128.856 114.56C125.496 117.556 122.087 120.496 118.632 123.381C117.698 124.091 116.024 124.165 115.378 123.621C111.272 120.181 110.269 118.272 107.725 114.779C103.298 119.424 99.581 121.989 95.1597 123.381C92.0508 124.173 88.8529 124.56 85.6451 124.533C74.4984 124.533 65.6717 117.584 65.6717 103.84C65.6717 92.912 71.4851 85.4827 80.0717 81.968C88.6584 78.448 101.138 77.328 105.16 77.3067M102.616 104.997C105.389 100.347 105.16 96.5387 105.16 88.0107C101.682 88.0107 98.1944 88.2507 95.1811 88.96C89.6077 90.576 85.1811 94.08 85.1811 101.52C85.1811 107.333 88.2104 111.291 93.3197 111.291C94.0237 111.291 94.6424 111.211 95.1757 111.051C98.7491 110.059 100.978 108.267 102.616 104.997Z" fill="#F2F1EB"/>
</svg>
