<svg width="192" height="192" viewBox="0 0 192 192" fill="none" xmlns="http://www.w3.org/2000/svg">
<circle cx="96" cy="96" r="96" fill="black"/>
<path d="M146.375 131.521C146.375 139.174 140.174 145.375 132.521 145.375H60.4792C52.8289 145.375 46.625 139.174 46.625 131.521V59.4792C46.625 51.8261 52.8289 45.625 60.4792 45.625H132.521C140.174 45.625 146.375 51.8261 146.375 59.4792V131.521Z" fill="#F2F1EB"/>
<path d="M104.813 62.25V84.4167H88.1875C74.3334 84.4167 66.0209 95.9987 66.0209 107.636C66.0209 119.301 76.6055 128.75 88.1875 128.75H124.208V62.25H104.813ZM104.813 114.896H90.9584C85.8046 114.896 82.6459 111.737 82.6459 106.583C82.6459 101.43 86.4696 98.2708 91.6234 98.2708H104.813V114.896Z" fill="#090504"/>
</svg>
