<svg width="192" height="192" viewBox="0 0 192 192" fill="none" xmlns="http://www.w3.org/2000/svg">
<path d="M134.32 66.185C133.491 64.038 132.222 62.0885 130.594 60.462C128.966 58.8355 127.015 57.5681 124.867 56.7414C121.909 55.646 118.786 55.067 115.632 55.0298C110.388 54.7909 108.816 54.7312 95.5309 54.7312C82.2462 54.7312 80.6739 54.7909 75.4296 55.0298C72.2727 55.0659 69.1456 55.6449 66.185 56.7414C64.0381 57.5703 62.0885 58.8398 60.462 60.468C58.8355 62.0962 57.5681 64.0471 56.7414 66.1949C55.646 69.1524 55.0671 72.276 55.0298 75.4296C54.791 80.6738 54.7313 82.2461 54.7313 95.5309C54.7313 108.816 54.791 110.388 55.0298 115.632C55.0659 118.789 55.6449 121.916 56.7414 124.877C57.5704 127.024 58.8398 128.973 60.4681 130.6C62.0963 132.226 64.0471 133.494 66.195 134.32C69.1524 135.416 72.2761 135.995 75.4296 136.032C80.6739 136.271 82.2462 136.321 95.5309 136.321C108.816 136.321 110.388 136.271 115.632 136.022C118.789 135.989 121.916 135.413 124.877 134.32C127.024 133.491 128.973 132.222 130.6 130.594C132.226 128.966 133.494 127.015 134.32 124.867C135.416 121.909 135.995 118.786 136.032 115.632C136.271 110.388 136.321 108.816 136.321 95.5309C136.321 82.2461 136.271 80.6738 136.022 75.4296C135.989 72.2733 135.414 69.1462 134.32 66.185ZM95.5309 121.085C90.4767 121.085 85.536 119.587 81.3336 116.779C77.1312 113.971 73.8558 109.98 71.9216 105.31C69.9875 100.641 69.4814 95.5025 70.4674 90.5454C71.4535 85.5883 73.8873 81.035 77.4611 77.4611C81.035 73.8872 85.5884 71.4534 90.5455 70.4674C95.5026 69.4814 100.641 69.9874 105.31 71.9216C109.98 73.8557 113.971 77.1311 116.779 81.3336C119.587 85.536 121.085 90.4767 121.085 95.5309C121.085 102.308 118.393 108.808 113.601 113.601C108.808 118.393 102.308 121.085 95.5309 121.085ZM122.09 74.942C120.91 74.942 119.755 74.5918 118.773 73.9357C117.791 73.2797 117.026 72.3472 116.574 71.2562C116.122 70.1652 116.004 68.9647 116.235 67.8065C116.465 66.6483 117.034 65.5844 117.869 64.7494C118.704 63.9144 119.767 63.3457 120.926 63.1153C122.084 62.885 123.284 63.0032 124.375 63.4551C125.466 63.907 126.399 64.6723 127.055 65.6542C127.711 66.636 128.061 67.7904 128.061 68.9713C128.061 70.5548 127.432 72.0735 126.312 73.1932C125.193 74.3129 123.674 74.942 122.09 74.942ZM112.119 95.5309C112.119 98.8118 111.147 102.019 109.324 104.747C107.501 107.475 104.91 109.601 101.879 110.857C98.8479 112.112 95.5125 112.441 92.2947 111.801C89.0768 111.161 86.121 109.581 83.8011 107.261C81.4811 104.941 79.9012 101.985 79.2611 98.7671C78.6211 95.5493 78.9496 92.2139 80.2051 89.1827C81.4607 86.1516 83.5869 83.5608 86.3148 81.738C89.0428 79.9152 92.25 78.9423 95.5309 78.9423C99.9305 78.9423 104.15 80.6901 107.261 83.801C110.372 86.912 112.119 91.1313 112.119 95.5309ZM95.5309 0C76.6367 0 58.1668 5.60279 42.4568 16.0999C26.7468 26.5969 14.5024 41.5168 7.2719 58.9728C0.0413918 76.4288 -1.85044 95.6368 1.83564 114.168C5.52172 132.699 14.6202 149.721 27.9804 163.081C41.3406 176.442 58.3626 185.54 76.8938 189.226C95.4249 192.912 114.633 191.02 132.089 183.79C149.545 176.559 164.465 164.315 174.962 148.605C185.459 132.895 191.062 114.425 191.062 95.5309C191.062 70.1945 180.997 45.8959 163.081 27.9803C145.166 10.0648 120.867 0 95.5309 0ZM144.988 116.04C144.904 120.169 144.12 124.254 142.669 128.121C141.391 131.425 139.437 134.426 136.932 136.932C134.427 139.437 131.425 141.391 128.121 142.669C124.257 144.119 120.176 144.903 116.05 144.988C110.736 145.227 109.045 145.287 95.5309 145.287C82.0173 145.287 80.3256 145.227 75.0117 144.988C70.886 144.903 66.8046 144.119 62.941 142.669C59.6364 141.391 56.6353 139.437 54.13 136.932C51.6246 134.426 49.6704 131.425 48.3924 128.121C46.9431 124.257 46.1592 120.176 46.0738 116.05C45.835 110.736 45.7753 109.045 45.7753 95.5309C45.7753 82.0172 45.835 80.3255 46.0738 75.0116C46.156 70.8865 46.9366 66.8052 48.3825 62.9409C49.6604 59.6336 51.6156 56.6299 54.1228 54.1227C56.6299 51.6156 59.6336 49.6603 62.941 48.3824C66.8052 46.9365 70.8866 46.1559 75.0117 46.0737C80.3256 45.8349 82.0173 45.7752 95.5309 45.7752C109.045 45.7752 110.736 45.8349 116.05 46.0737C120.175 46.1559 124.257 46.9365 128.121 48.3824C131.426 49.6615 134.428 51.6173 136.934 54.1244C139.439 56.6315 141.393 59.6345 142.669 62.9409C144.119 66.8046 144.903 70.886 144.988 75.0116C145.227 80.3255 145.287 82.0172 145.287 95.5309C145.287 109.045 145.227 110.726 144.988 116.04Z" fill="black"/>
</svg>
