<svg width="192" height="192" viewBox="0 0 192 192" fill="none" xmlns="http://www.w3.org/2000/svg">
<path d="M95.6686 0C42.8306 0 0 42.8306 0 95.6686C0 136.195 25.2219 170.796 60.8163 184.729C59.9724 177.152 59.2243 165.559 61.1276 157.299C62.8753 149.817 72.35 109.758 72.35 109.758C72.35 109.758 69.483 103.988 69.483 95.5429C69.483 82.2616 77.216 72.32 86.7864 72.32C94.9563 72.32 98.9126 78.431 98.9126 85.7869C98.9126 93.9867 93.7054 106.268 90.9941 117.646C88.7197 127.157 95.7643 134.914 105.149 134.914C122.141 134.914 135.231 116.988 135.231 91.1138C135.231 68.2919 118.772 52.2694 95.2676 52.2694C68.0525 52.2694 52.0898 72.721 52.0898 93.7593C52.0898 101.989 55.2381 110.841 59.2003 115.611C59.9784 116.575 60.0742 117.419 59.8527 118.389C59.1345 121.381 57.5125 127.959 57.2012 129.27C56.7643 131.047 55.8306 131.419 53.9931 130.581C42.0824 125.062 34.5709 107.603 34.5709 93.5139C34.5709 63.372 56.5189 35.6243 97.7933 35.6243C130.964 35.6243 156.772 59.314 156.772 90.8624C156.772 123.877 135.979 150.434 107.053 150.434C97.3564 150.434 88.2528 145.412 85.0447 139.427L79.0594 162.153C76.9107 170.478 71.0452 180.917 67.0889 187.249C76.0668 189.99 85.5116 191.523 95.4232 191.523C148.171 191.523 191.062 148.722 191.062 95.8541C191.062 43.0161 148.165 0.21547 95.4232 0.21547L95.6686 0Z" fill="black"/>
</svg>
