<svg width="192" height="192" viewBox="0 0 192 192" fill="none" xmlns="http://www.w3.org/2000/svg">
<circle cx="96" cy="96" r="96" fill="black"/>
<path d="M98.3688 42.0902C104.275 42 110.135 42.0451 115.996 42C116.357 48.8975 118.836 55.9303 123.885 60.7992C128.934 65.8033 136.057 68.1025 143 68.8689V87.0369C136.508 86.8115 129.971 85.459 124.066 82.664C121.496 81.4918 119.107 80.0041 116.762 78.4713C116.717 91.6353 116.807 104.799 116.672 117.918C116.311 124.23 114.238 130.496 110.586 135.68C104.68 144.336 94.4467 149.971 83.9426 150.152C77.4959 150.512 71.0492 148.754 65.5492 145.508C56.4426 140.143 50.041 130.316 49.0942 119.766C49.0041 117.512 48.959 115.258 49.0491 113.049C49.8606 104.484 54.0983 96.2787 60.6803 90.6885C68.1639 84.1967 78.6229 81.0861 88.4057 82.9344C88.4959 89.6066 88.2254 96.2787 88.2254 102.951C83.7623 101.508 78.5328 101.914 74.6106 104.619C71.7705 106.467 69.6065 109.307 68.4795 112.508C67.5328 114.807 67.8033 117.332 67.8483 119.766C68.9303 127.16 76.0533 133.381 83.627 132.705C88.6762 132.66 93.5 129.73 96.1147 125.447C96.9713 123.959 97.918 122.426 97.9631 120.668C98.4139 112.598 98.2336 104.574 98.2787 96.5041C98.3238 78.3361 98.2336 60.2131 98.3688 42.0902Z" fill="#F2F1EB"/>
</svg>
