<svg width="192" height="192" viewBox="0 0 192 192" fill="none" xmlns="http://www.w3.org/2000/svg">
<path d="M111.483 93.8691L89.1323 83.4403C87.1819 82.5347 85.5798 83.5497 85.5798 85.7091V105.353C85.5798 107.512 87.1819 108.527 89.1323 107.622L111.473 97.1927C113.433 96.2772 113.433 94.7846 111.483 93.8691ZM95.5309 0C42.77 0 0 42.77 0 95.5309C0 148.292 42.77 191.062 95.5309 191.062C148.292 191.062 191.062 148.292 191.062 95.5309C191.062 42.77 148.292 0 95.5309 0ZM95.5309 134.34C46.631 134.34 45.7752 129.932 45.7752 95.5309C45.7752 61.1298 46.631 56.7215 95.5309 56.7215C144.431 56.7215 145.287 61.1298 145.287 95.5309C145.287 129.932 144.431 134.34 95.5309 134.34Z" fill="black"/>
</svg>
